<svg width="15" height="15" viewBox="0 0 15 15" fill="none" xmlns="http://www.w3.org/2000/svg">
<path d="M13.0417 1.95833H11.4583V0.375H3.54167V1.95833H1.95833C1.0875 1.95833 0.375 2.67083 0.375 3.54167V4.33333C0.375 6.35208 1.895 7.99875 3.85042 8.24417C4.10078 8.83741 4.49183 9.36078 4.98976 9.76905C5.48769 10.1773 6.07753 10.4582 6.70833 10.5875V13.0417H3.54167V14.625H11.4583V13.0417H8.29167V10.5875C8.92247 10.4582 9.51231 10.1773 10.0102 9.76905C10.5082 9.36078 10.8992 8.83741 11.1496 8.24417C13.105 7.99875 14.625 6.35208 14.625 4.33333V3.54167C14.625 2.67083 13.9125 1.95833 13.0417 1.95833ZM1.95833 4.33333V3.54167H3.54167V6.56583C2.62333 6.23333 1.95833 5.3625 1.95833 4.33333ZM7.5 9.08333C6.19375 9.08333 5.125 8.01458 5.125 6.70833V1.95833H9.875V6.70833C9.875 8.01458 8.80625 9.08333 7.5 9.08333ZM13.0417 4.33333C13.0417 5.3625 12.3767 6.23333 11.4583 6.56583V3.54167H13.0417V4.33333Z" fill="#1C4980"/>
</svg>
