<svg width="25" height="25" viewBox="0 0 25 25" fill="none" xmlns="http://www.w3.org/2000/svg">
<path d="M21 19V20C21 22.2091 19.2091 24 17 24H5C2.79086 24 1 22.2091 1 20V8C1 5.79086 2.79086 4 5 4H5.5" stroke="#1C4980" stroke-width="1.5"/>
<rect x="5.75" y="0.75" width="18.5" height="18.5" rx="3.25" stroke="#1C4980" stroke-width="1.5"/>
<path d="M19.7487 6.04404C19.773 5.63054 19.4575 5.27562 19.044 5.25129L12.3057 4.85492C11.8922 4.8306 11.5373 5.14609 11.5129 5.55958C11.4886 5.97308 11.8041 6.32801 12.2176 6.35233L18.2073 6.70466L17.8549 12.6943C17.8306 13.1078 18.1461 13.4627 18.5596 13.4871C18.9731 13.5114 19.328 13.1959 19.3523 12.7824L19.7487 6.04404ZM10.4983 14.5606L19.4983 6.56056L18.5017 5.43944L9.50173 13.4394L10.4983 14.5606Z" fill="#1C4980"/>
</svg>
