<svg width="18" height="17" viewBox="0 0 18 17" fill="none" xmlns="http://www.w3.org/2000/svg">
<path d="M8.99935 0.166016C4.41602 0.166016 0.666016 3.91602 0.666016 8.49935C0.666016 13.0827 4.41602 16.8327 8.99935 16.8327C13.5827 16.8327 17.3327 13.0827 17.3327 8.49935C17.3327 3.91602 13.5827 0.166016 8.99935 0.166016ZM8.99935 15.166C5.32435 15.166 2.33268 12.1743 2.33268 8.49935C2.33268 4.82435 5.32435 1.83268 8.99935 1.83268C12.6743 1.83268 15.666 4.82435 15.666 8.49935C15.666 12.1743 12.6743 15.166 8.99935 15.166ZM9.41602 4.33268H8.16602V9.33268L12.4994 11.9994L13.166 10.916L9.41602 8.66602V4.33268Z" fill="#1C4980" fill-opacity="0.7"/>
</svg>
