<svg width="12" height="17" viewBox="0 0 12 17" fill="none" xmlns="http://www.w3.org/2000/svg">
<path d="M5.6262 6.00708C5.66059 5.93731 5.71382 5.87855 5.77987 5.83746C5.84593 5.79637 5.92216 5.7746 5.99995 5.7746C6.07774 5.7746 6.15398 5.79637 6.22003 5.83746C6.28608 5.87855 6.33932 5.93731 6.3737 6.00708L7.61745 8.52708C7.6473 8.58774 7.69146 8.64022 7.74612 8.68C7.80079 8.71978 7.8643 8.74567 7.9312 8.75542L10.7125 9.15958C10.7893 9.17082 10.8615 9.20332 10.9209 9.25342C10.9803 9.30352 11.0245 9.36922 11.0485 9.44311C11.0725 9.517 11.0754 9.59613 11.0568 9.67156C11.0382 9.74699 10.9989 9.81573 10.9433 9.87L8.93079 11.8317C8.88239 11.8788 8.84618 11.937 8.82527 12.0012C8.80437 12.0655 8.7994 12.1338 8.81079 12.2004L9.28579 14.9704C9.29886 15.047 9.29027 15.1257 9.26098 15.1976C9.2317 15.2696 9.18288 15.3319 9.12005 15.3776C9.05722 15.4232 8.98287 15.4504 8.9054 15.4561C8.82793 15.4618 8.75042 15.4456 8.68162 15.4096L6.19412 14.1021C6.13431 14.0706 6.06774 14.0542 6.00016 14.0542C5.93258 14.0542 5.86601 14.0706 5.8062 14.1021L3.3187 15.4096C3.24988 15.4459 3.17227 15.4622 3.09466 15.4566C3.01705 15.4511 2.94254 15.4239 2.87957 15.3782C2.81661 15.3325 2.7677 15.2701 2.73838 15.198C2.70907 15.1259 2.70052 15.0471 2.7137 14.9704L3.1887 12.2004C3.20014 12.1339 3.19524 12.0655 3.17441 12.0013C3.15357 11.9371 3.11744 11.8788 3.06912 11.8317L1.05662 9.87C1.00091 9.81574 0.961495 9.74698 0.942836 9.67148C0.924177 9.59599 0.927017 9.51678 0.951036 9.44282C0.975054 9.36885 1.01929 9.30309 1.07875 9.25296C1.1382 9.20283 1.21049 9.17034 1.28745 9.15917L4.0687 8.755C4.13556 8.74529 4.19905 8.71947 4.25371 8.67977C4.30837 8.64006 4.35255 8.58766 4.38245 8.52708L5.6262 6.00708ZM11 1H0.999951V3.16667L5.99995 5.25L11 3.16667V1Z" stroke="#6080A6" stroke-width="1.6" stroke-linecap="round" stroke-linejoin="round"/>
</svg>
