<svg width="20" height="14" viewBox="0 0 20 14" fill="none" xmlns="http://www.w3.org/2000/svg">
<path d="M7.25065 6.99992C9.01982 6.99992 10.459 5.56075 10.459 3.79159C10.459 2.02242 9.01982 0.583252 7.25065 0.583252C5.48148 0.583252 4.04232 2.02242 4.04232 3.79159C4.04232 5.56075 5.48148 6.99992 7.25065 6.99992ZM7.25065 2.41659C8.01148 2.41659 8.62565 3.03075 8.62565 3.79159C8.62565 4.55242 8.01148 5.16659 7.25065 5.16659C6.48982 5.16659 5.87565 4.55242 5.87565 3.79159C5.87565 3.03075 6.48982 2.41659 7.25065 2.41659ZM7.29648 11.5833H3.37315C4.28065 11.1249 5.84815 10.6666 7.25065 10.6666C7.35148 10.6666 7.46148 10.6758 7.56232 10.6758C7.87398 10.0066 8.41482 9.45659 9.06565 9.01659C8.39648 8.89742 7.76398 8.83325 7.25065 8.83325C5.10565 8.83325 0.833984 9.90575 0.833984 12.0416V13.4166H7.25065V12.0416C7.25065 11.8858 7.26898 11.7299 7.29648 11.5833ZM14.1257 9.29159C12.439 9.29159 9.08398 10.2174 9.08398 12.0416V13.4166H19.1673V12.0416C19.1673 10.2174 15.8123 9.29159 14.1257 9.29159ZM15.2348 7.62325C15.9315 7.22909 16.4173 6.48659 16.4173 5.62492C16.4173 4.35992 15.3907 3.33325 14.1257 3.33325C12.8607 3.33325 11.834 4.35992 11.834 5.62492C11.834 6.48659 12.3198 7.22909 13.0165 7.62325C13.3465 7.80659 13.7223 7.91659 14.1257 7.91659C14.529 7.91659 14.9048 7.80659 15.2348 7.62325Z" fill="#1C4980" fill-opacity="0.7"/>
</svg>
